# xmcd
#
# Track frame offsets: 
#        150
#        13230
#        25370
#        37025
#        50250
#        63037
#        74160
#        87572
#        100440
#        114057
#        127457
#        140675
#        153220
#        163840
#        177342
#        190795
#        201935
#        212975
#        224170
#        235877
#        249900
#        260712
#        274852
#
# Disc length: 3830 seconds
#
# Revision: 0
# Processed by: cddbd v1.5.2PL0 Copyright (c) Steve Scherf et al.
# Submitted via: ExactAudioCopy v0.99pb4
#
DISCID=6d0ef417
DTITLE=Bill Gaither (Leroy's Buddy) - Complete Recorded Works Vol. 4 -
DTITLE=1939
DYEAR=1994
DGENRE=Blues
TTITLE0=Army Bound Blues
TTITLE1=Sing Sing Blues
TTITLE2=Kentland Blues
TTITLE3=Lazy Woman Blues
TTITLE4=See My Grieve Blues
TTITLE5=Wintertime Blues
TTITLE6=Another Big Leg Woman
TTITLE7=Greyhound Blues
TTITLE8=Changing Blues
TTITLE9=Jungle Man Blues
TTITLE10=Hard Way To Go
TTITLE11=New So Much Trouble
TTITLE12=Mean Devil Blues
TTITLE13=Stony Lonesome Graveyard
TTITLE14=Cheatin' Blues
TTITLE15=Bloody Eyed Woman
TTITLE16=Bachelor Man Blues
TTITLE17=Evil Yalla Woman
TTITLE18=It's Too Late Now
TTITLE19=Sweet Woman Blues
TTITLE20=Triflin' Woman Blues
TTITLE21=Rainy Morning
TTITLE22=Fairy Tale Blues
EXTD=
EXTT0=
EXTT1=
EXTT2=
EXTT3=
EXTT4=
EXTT5=
EXTT6=
EXTT7=
EXTT8=
EXTT9=
EXTT10=
EXTT11=
EXTT12=
EXTT13=
EXTT14=
EXTT15=
EXTT16=
EXTT17=
EXTT18=
EXTT19=
EXTT20=
EXTT21=
EXTT22=
PLAYORDER=
